HIERARCHY
ROOT Hips
{
  OFFSET -291.775 91.1868 299.031
  CHANNELS 6 Xposition Yposition Zposition Zrotation Xrotation Yrotation
  JOINT ToSpine
  {
    OFFSET -0.0105055 1.38907 -7.13956
    CHANNELS 3 Zrotation Xrotation Yrotation
    JOINT Spine
    {
      OFFSET 0.0105055 10 1
      CHANNELS 3 Zrotation Xrotation Yrotation
      JOINT Spine1
      {
        OFFSET 0 12 1.60637
        CHANNELS 3 Zrotation Xrotation Yrotation
        JOINT Neck
        {
          OFFSET 0 27 2.26658
          CHANNELS 3 Zrotation Xrotation Yrotation
          JOINT Head
          {
            OFFSET 0 9 2.12705
            CHANNELS 3 Zrotation Xrotation Yrotation
            End Site
            {
              OFFSET 0 11 2
            }
          }
        }
        JOINT LeftShoulder
        {
          OFFSET 8 19.6109 2.86452
          CHANNELS 3 Zrotation Xrotation Yrotation
          JOINT LeftArm
          {
            OFFSET 12 1 0.681055
            CHANNELS 3 Zrotation Xrotation Yrotation
            JOINT LeftForeArm
            {
              OFFSET 19 0 -1.52608
              CHANNELS 3 Zrotation Xrotation Yrotation
              JOINT LeftHand
              {
                OFFSET 23 0 0
                CHANNELS 3 Zrotation Xrotation Yrotation
                End Site
                {
                  OFFSET 10 0 0
                }
              }
            }
          }
        }
        JOINT RightShoulder
        {
          OFFSET -8 19.6109 2.86452
          CHANNELS 3 Zrotation Xrotation Yrotation
          JOINT RightArm
          {
            OFFSET -12 1 0.681055
            CHANNELS 3 Zrotation Xrotation Yrotation
            JOINT RightForeArm
            {
              OFFSET -19 0 -1.52608
              CHANNELS 3 Zrotation Xrotation Yrotation
              JOINT RightHand
              {
                OFFSET -23 0 0
                CHANNELS 3 Zrotation Xrotation Yrotation
                End Site
                {
                  OFFSET -10 0 0
                }
              }
            }
          }
        }
      }
    }
  }
  JOINT LeftUpLeg
  {
    OFFSET 9 -7.17245 0
    CHANNELS 3 Zrotation Xrotation Yrotation
    JOINT LeftLeg
    {
      OFFSET 0 -44.1113 0
      CHANNELS 3 Zrotation Xrotation Yrotation
      JOINT LeftFoot
      {
        OFFSET 0 -36.1829 0
        CHANNELS 3 Zrotation Xrotation Yrotation
        JOINT LeftToeBase
        {
          OFFSET 0 -4.84184 13
          CHANNELS 3 Zrotation Xrotation Yrotation
          End Site
          {
            OFFSET 0 1 6
          }
        }
      }
    }
  }
  JOINT RightUpLeg
  {
    OFFSET -9 -7.17245 0
    CHANNELS 3 Zrotation Xrotation Yrotation
    JOINT RightLeg
    {
      OFFSET 0 -44.0551 0
      CHANNELS 3 Zrotation Xrotation Yrotation
      JOINT RightFoot
      {
        OFFSET 0 -36.1469 0
        CHANNELS 3 Zrotation Xrotation Yrotation
        JOINT RightToeBase
        {
          OFFSET 0 -4.92256 13
          CHANNELS 3 Zrotation Xrotation Yrotation
          End Site
          {
            OFFSET 0 1 6
          }
        }
      }
    }
  }
}
MOTION
Frames:	7
Frame Time:	0.0333333
-30.4553 98.4663 65.36 4.06971 3.47778 124.719 0 0 0 -9.43916 4.52975 -2.24722 8.15687 0.473373 -4.16678 8.63466 33.4778 -2.21598 -7.6207 6.54964 4.85069 -24.284 2.24869 -3.85762 -48.5974 -16.3946 -22.3516 6.71556 10.6754 -32.4415 -6.62002 0.323391 -5.58409 22.1172 3.47577 8.65668 57.3614 0.228896 -16.2648 3.00655 -10.0583 9.97798 4.11609 0.133046 3.69301 0.249858 -3.97158 7.54285 -2.36353 21.2729 -7.6054 3.3209 -11.229 0.326018 0.177575 1.73172 -1.18004 -2.03416 -6.82948 -2.59759 -0.582715 17.4828 5.84953 -13.9646 -1.06956 -0.128545 4.05553 -15.3748 -6.14138 
-29.6131 98.6568 65.037 3.85703 2.68227 125.607 0 0 0 -8.31743 4.58838 -2.31113 7.8511 0.241216 -4.13041 8.63047 33.9143 -2.2876 -7.4125 6.37613 4.74005 -24.5634 2.22614 -3.71843 -49.1264 -14.7589 -19.7789 6.58057 10.6442 -31.9867 -6.81244 0.332712 -5.58168 21.7183 3.45533 8.75267 58.009 0.0519968 -16.2828 3.04158 -10.2978 9.99778 4.50086 0.143388 3.64941 0.917649 -3.94797 7.52373 -2.13429 20.9509 -8.64492 3.65262 -11.1614 0.357281 0.0584254 -0.155995 -0.186 -1.4608 -5.89469 -3.72636 -0.295721 15.4894 6.13507 -14.7398 -0.222142 -0.0297169 4.05921 -15.4232 -6.88164 
-28.7382 98.8203 64.6678 3.60774 2.13741 125.488 0 0 0 -6.85954 3.9312 -1.94611 6.72129 0.847482 -3.52542 8.96656 34.4974 -2.5604 -7.11389 5.97701 4.5912 -24.285 2.20931 -3.72657 -50.3539 -13.3663 -17.1992 5.63652 10.1878 -29.2964 -7.05555 0.321591 -5.21778 21.4852 3.50644 9.02859 58.5056 0.173838 -16.3558 3.18411 -10.4609 11.2787 4.44525 0.133649 3.44013 1.32918 -3.41433 7.66382 -2.00612 19.9876 -8.65799 3.05429 -11.5853 0.309462 0.187288 1.11946 -1.06283 -1.19448 -5.13273 -4.14261 -0.0444691 13.9783 6.48016 -14.0516 -0.214598 -0.0261033 4.00064 -15.089 -6.02217 
-27.9111 98.9365 64.3887 3.21821 1.74844 125.016 0 0 0 -5.6803 3.49264 -1.30846 5.95078 1.13175 -2.69561 8.34867 34.654 -2.06407 -6.54476 6.19544 4.61374 -24.8622 2.2113 -3.60605 -50.3968 -10.0685 -14.4161 3.3791 6.90644 -24.8091 -7.71468 0.323817 -4.79477 20.7111 3.30761 8.64231 59.0689 1.05845 -16.0518 2.96925 -8.95139 13.05 4.2 0.136848 3.73824 1.50011 -2.8466 7.76114 -2.04661 18.8373 -8.29186 3.00208 -11.4814 0.301223 0.191825 0.743153 -1.00697 -1.02712 -4.67391 -4.36345 0.101677 12.8593 7.03139 -13.7923 -0.288751 -0.0350392 3.853 -14.4123 -5.42789 
-27.036 99.0311 64.1587 2.87616 1.47742 124.79 0 0 0 -4.77199 3.17702 -0.956504 5.16558 1.40775 -2.16245 8.19439 34.8609 -1.78646 -6.66905 6.13407 4.86196 -25.2795 2.18702 -3.43797 -49.9667 -4.22273 -11.2276 1.02859 0.0836225 -19.2426 -8.10519 0.303933 -4.27525 20.6236 3.245 8.44893 58.8737 2.24449 -15.584 2.7495 -7.83009 15.091 4.03407 0.134013 3.79772 1.68052 -2.26415 7.83659 -2.07455 17.9127 -8.1664 3.03396 -11.3908 0.302226 0.136996 -0.478163 -0.445861 -0.715806 -4.07011 -4.34834 0.113683 11.7476 7.24256 -14.3922 -0.180442 -0.0233215 3.90021 -14.6161 -5.30972 
-26.1402 99.0884 63.9441 2.40884 1.13168 124.523 0 0 0 -3.74236 2.76762 -0.737171 4.09183 1.42728 -1.7016 7.85297 35.6986 -1.62551 -6.18701 5.78294 4.73633 -25.8255 2.2038 -3.37673 -49.7896 1.256 -7.81941 -0.56557 -6.51799 -13.3131 -8.93579 0.285152 -3.63567 20.4308 3.21105 8.40521 58.5847 2.89686 -14.7659 2.55116 -7.16229 16.5779 3.49322 0.113348 3.73564 1.89752 -2.05472 7.88928 -2.02948 17.4982 -8.12441 2.67748 -11.7534 0.276693 0.125903 -0.517053 -0.403274 -0.374959 -3.78427 -4.21687 0.194444 10.9394 7.53483 -15.7901 0.220609 0.032254 3.9709 -14.9604 -6.10561 
-25.3359 99.1081 63.7811 2.01782 0.743761 124.621 0 0 0 -2.65745 2.61346 -0.757455 3.17608 1.4496 -1.53551 6.96972 36.1077 -1.18119 -5.4877 5.84718 4.50913 -26.9831 2.23549 -3.24149 -49.604 4.92088 -4.27154 -1.74989 -10.6853 -7.88532 -10.7136 0.260947 -2.80988 19.7441 3.07313 8.16887 58.2282 2.9022 -13.3366 2.30072 -6.58565 17.553 3.18283 0.116347 4.16793 2.15341 -2.22122 7.84454 -1.82142 17.704 -8.60071 2.0986 -12.5484 0.228284 -0.128597 0.803187 0.331299 -0.0707639 -3.54457 -4.25743 0.548999 10.2694 7.58377 -17.2683 0.652477 0.0987076 3.98032 -15.0627 -7.17047 
